<?xml version='1.0' encoding='iso-8859-1'?>
<svg version="1.1" xmlns="http://www.w3.org/2000/svg" viewBox="0 0 470.064 470.064" xmlns:xlink="http://www.w3.org/1999/xlink" enable-background="new 0 0 470.064 470.064">
  <g>
    <path d="m464.898,250.841c-0.875-4.048-4.868-6.618-8.917-5.745-4.048,0.876-6.62,4.868-5.745,8.917 11.548,53.379 2.47,99.831-25.547,131.791l-340.391-340.387c65.463-57.279 189.309-31.575 280.638,59.75 35.77,35.77 62.537,77.505 77.408,120.695 1.349,3.917 5.618,5.998 9.533,4.649 3.917-1.349 5.998-5.617 4.649-9.533-15.609-45.332-43.613-89.046-80.984-126.417-47.989-47.988-106.097-80.248-163.62-90.837-58.542-10.777-109.58,2.083-143.71,36.213-1.407,1.406-2.197,3.314-2.197,5.303s0.79,3.897 2.197,5.303l351.348,351.344c1.464,1.464 3.384,2.197 5.303,2.197s3.839-0.732 5.303-2.197c18.093-18.093 30.219-40.883 36.039-67.737 5.551-25.61 5.111-53.64-1.307-83.309z"/>
    <path d="m50.534,68.221c-2.929-2.929-7.678-2.929-10.606,0-34.13,34.13-46.991,85.167-36.214,143.708 10.59,57.522 42.851,115.63 90.84,163.618 59.176,59.177 134.881,94.507 202.51,94.507 42.481,0 78.727-13.792 104.818-39.883 2.929-2.929 2.929-7.678 0-10.606l-351.348-351.344zm246.53,386.833c-63.738,0-135.478-33.687-191.903-90.113-45.861-45.86-76.65-101.165-86.695-155.728-9.285-50.433 0.281-94.445 26.941-124.907l340.388,340.384c-22.745,19.895-53.248,30.364-88.731,30.364z"/>
    <circle cx="307.875" cy="408.035" r="7.5"/>
    <circle cx="265.448" cy="408.035" r="7.5"/>
    <circle cx="204.647" cy="62.072" r="7.5"/>
  </g>
</svg>
